<svg width="1190" height="390" viewBox="0 0 1190 390" fill="none" xmlns="http://www.w3.org/2000/svg">
<path d="M1128.5 4.875H57.4987C27.3762 4.875 2.95703 28.8837 2.95703 58.5V331.5C2.95703 361.116 27.3762 385.125 57.4987 385.125H1128.5C1158.62 385.125 1183.04 361.116 1183.04 331.5V58.5C1183.04 28.8837 1158.62 4.875 1128.5 4.875Z" fill="black"/>
<g clip-path="url(#clip0_1025_159)">
<mask id="mask0_1025_159" style="mask-type:luminance" maskUnits="userSpaceOnUse" x="5" y="17" width="1170" height="351">
<path d="M1175 17H5V368H1175V17Z" fill="white"/>
</mask>
<g mask="url(#mask0_1025_159)">
<path d="M1092.48 17H70.0975C64.2896 17.0836 58.4817 17.6059 52.7364 18.546C47.033 19.507 41.5176 21.3455 36.3573 23.9778C31.1762 26.631 26.4337 30.0782 22.3181 34.1729C18.2024 38.2886 14.7553 43.031 12.1229 48.2121C9.44875 53.435 7.61028 59.0339 6.64926 64.8209C5.66735 70.5661 5.14506 76.3531 5.10327 82.1609C4.95703 84.856 4.95703 87.4674 4.95703 90.1415V294.879C4.95703 297.574 4.95703 300.186 5.10327 302.881C5.16595 308.689 5.68824 314.497 6.64926 320.221C7.61028 325.924 9.42786 331.44 12.0602 336.6C17.3667 347.087 25.8488 355.611 36.2946 360.98C41.4549 363.613 46.9703 365.472 52.6738 366.454C58.419 367.394 64.2269 367.896 70.0348 367.979H1109.77C1115.58 367.916 1121.37 367.394 1127.09 366.454C1132.86 365.451 1138.42 363.613 1143.64 360.98C1148.84 358.348 1153.56 354.922 1157.68 350.785C1161.82 346.67 1165.28 341.948 1167.94 336.746C1170.53 331.586 1172.35 326.071 1173.29 320.367C1174.27 314.643 1174.79 308.835 1174.89 303.027V82.2654C1174.79 76.4575 1174.25 70.6497 1173.29 64.9254C1172.32 59.222 1170.53 53.7066 1167.94 48.5463C1162.63 38.0379 1154.17 29.4514 1143.72 24.0196C1138.5 21.4081 1132.92 19.6115 1127.18 18.6713C1121.45 17.7312 1115.67 17.2089 1109.86 17.1253H1101.88L1092.5 17L1092.48 17Z" fill="black"/>
</g>
<mask id="mask1_1025_159" style="mask-type:luminance" maskUnits="userSpaceOnUse" x="5" y="17" width="1170" height="351">
<path d="M1175 17H5V368H1175V17Z" fill="white"/>
</mask>
<g mask="url(#mask1_1025_159)">
<path d="M78.1403 360.417H70.3059C64.874 360.354 59.4631 359.874 54.1148 359.017C49.1217 358.16 44.2957 356.594 39.7622 354.337C30.7787 349.72 23.4457 342.429 18.8287 333.446C16.5515 328.912 14.9637 324.086 14.1489 319.072C13.2506 313.703 12.7701 308.271 12.7283 302.839C12.7283 301.022 12.582 294.921 12.582 294.921V90.1419C12.582 90.1419 12.582 84.146 12.7283 82.3911C12.7701 76.9384 13.2297 71.5066 14.128 66.1374C14.9428 61.1234 16.5097 56.2557 18.8078 51.7222C21.085 47.2514 24.0516 43.1984 27.6241 39.6678C31.1966 36.0953 35.2913 33.1078 39.7622 30.7888C44.2748 28.5325 49.1008 26.9448 54.073 26.1091C59.4422 25.2317 64.874 24.7512 70.3059 24.6885H1109.73C1115.12 24.7303 1120.51 25.2108 1125.82 26.0882C1130.85 26.903 1135.72 28.4907 1140.28 30.7679C1149.28 35.4268 1156.61 42.7806 1161.19 51.8267C1163.47 56.3393 1165.03 61.1443 1165.87 66.1165C1166.77 71.5275 1167.27 77.0011 1167.35 82.4956V302.798C1167.27 308.188 1166.77 313.536 1165.87 318.842C1165.07 323.877 1163.49 328.745 1161.19 333.299C1156.53 342.241 1149.22 349.532 1140.28 354.149C1135.72 356.426 1130.85 358.014 1125.84 358.829C1120.47 359.706 1115.06 360.166 1109.65 360.229H78.1403V360.375V360.417Z" fill="black"/>
</g>
<mask id="mask2_1025_159" style="mask-type:luminance" maskUnits="userSpaceOnUse" x="5" y="17" width="1170" height="351">
<path d="M1175 17H5V368H1175V17Z" fill="white"/>
</mask>
<g mask="url(#mask2_1025_159)">
<path d="M439.298 253.952H398.141L388.155 281.425H370.062L410.321 178.784H427.41L468.567 281.425H449.639L439.319 253.952H439.298ZM403.364 239.913H434.012L423.044 210.519C421.54 206.466 420.056 201.974 418.594 197.064C417.257 201.41 415.815 205.839 414.269 210.372L403.364 239.913Z" fill="white"/>
</g>
<mask id="mask3_1025_159" style="mask-type:luminance" maskUnits="userSpaceOnUse" x="5" y="17" width="1170" height="351">
<path d="M1175 17H5V368H1175V17Z" fill="white"/>
</mask>
<g mask="url(#mask3_1025_159)">
<path d="M475.818 223.701C475.818 218.04 475.63 211.793 475.254 204.983H491.633C492.239 208.2 492.678 211.438 492.887 214.697C495.749 211.271 499.321 208.492 503.374 206.57C507.406 204.648 511.814 203.625 516.285 203.562C521.529 203.478 526.689 204.962 531.077 207.824C535.464 210.686 538.911 214.781 540.979 219.607C543.862 226.25 545.22 233.437 544.97 240.665C545.158 248.542 543.549 256.376 540.29 263.542C537.574 269.496 533.124 274.51 527.504 277.915C521.738 281.237 515.178 282.929 508.534 282.804C503.291 282.804 498.109 281.905 493.158 280.192V311.843L475.651 313.347L475.797 223.701H475.818ZM521.822 262.706C525.373 258.026 527.191 251.007 527.191 241.647C527.191 233.124 525.707 226.877 522.741 222.928C521.404 221.09 519.628 219.607 517.601 218.604C515.554 217.601 513.319 217.1 511.041 217.162C507.761 217.121 504.544 217.935 501.682 219.502C498.632 221.236 495.874 223.388 493.472 225.937V266.884C495.414 267.804 497.462 268.472 499.551 268.89C501.807 269.371 504.126 269.621 506.424 269.642C509.37 269.809 512.295 269.287 514.99 268.075C517.664 266.864 520.025 265.025 521.822 262.706Z" fill="white"/>
</g>
<mask id="mask4_1025_159" style="mask-type:luminance" maskUnits="userSpaceOnUse" x="5" y="17" width="1170" height="351">
<path d="M1175 17H5V368H1175V17Z" fill="white"/>
</mask>
<g mask="url(#mask4_1025_159)">
<path d="M555.642 223.701C555.642 218.04 555.454 211.793 555.078 204.983H571.457C572.084 208.179 572.523 211.438 572.753 214.697C579.563 207.281 587.377 203.562 596.151 203.562C601.395 203.478 606.555 204.962 610.943 207.824C615.33 210.686 618.777 214.781 620.845 219.607C623.728 226.25 625.086 233.437 624.836 240.665C625.045 248.542 623.499 256.355 620.281 263.542C617.544 269.496 613.095 274.51 607.475 277.915C601.709 281.258 595.148 282.95 588.505 282.804C583.261 282.804 578.08 281.905 573.129 280.192V311.843L555.621 313.347V223.701H555.642ZM601.708 262.706C605.26 257.922 607.036 250.902 607.036 241.647C607.036 233.124 605.553 226.877 602.607 222.928C601.27 221.09 599.494 219.607 597.467 218.604C595.42 217.601 593.185 217.1 590.908 217.162C587.628 217.121 584.41 217.935 581.548 219.502C578.498 221.236 575.74 223.388 573.338 225.937V266.884C575.28 267.783 577.328 268.472 579.417 268.89C581.673 269.371 583.992 269.621 586.29 269.642C589.236 269.809 592.161 269.266 594.835 268.054C597.509 266.843 599.87 265.004 601.688 262.685L601.708 262.706Z" fill="white"/>
</g>
<mask id="mask5_1025_159" style="mask-type:luminance" maskUnits="userSpaceOnUse" x="5" y="17" width="1170" height="351">
<path d="M1175 17H5V368H1175V17Z" fill="white"/>
</mask>
<g mask="url(#mask5_1025_159)">
<path d="M657.011 276.579C649.531 272.484 643.452 266.216 639.587 258.633C635.346 250.046 633.257 240.562 633.507 230.993C633.194 220.756 635.618 210.624 640.527 201.62C644.956 193.806 651.6 187.497 659.622 183.486C668.062 179.37 677.338 177.281 686.719 177.427C692.401 177.406 698.084 178.054 703.62 179.391C708.801 180.603 713.815 182.399 718.599 184.718L714.066 198.172C705.793 193.994 696.684 191.717 687.408 191.529C680.869 191.424 674.413 193.033 668.689 196.209C663.257 199.322 658.891 204.001 656.175 209.642C653.041 216.327 651.516 223.66 651.725 231.035C651.6 237.679 652.77 244.301 655.151 250.506C657.303 256 661.105 260.701 666.015 263.981C671.614 267.491 678.132 269.204 684.734 268.932C688.16 268.932 691.566 268.64 694.929 268.076C698.188 267.554 701.406 266.718 704.498 265.59V244.719H680.765V231.119H721.503V274.385C715.591 277.143 709.407 279.253 703.035 280.673C696.726 282.136 690.27 282.867 683.794 282.867C674.476 283.097 665.263 280.924 657.032 276.558L657.011 276.579Z" fill="white"/>
</g>
<mask id="mask6_1025_159" style="mask-type:luminance" maskUnits="userSpaceOnUse" x="5" y="17" width="1170" height="351">
<path d="M1175 17H5V368H1175V17Z" fill="white"/>
</mask>
<g mask="url(#mask6_1025_159)">
<path d="M783.657 281.425C782.988 278.082 782.591 274.698 782.445 271.292C779.52 274.698 775.948 277.476 771.937 279.482C767.403 281.78 762.389 282.929 757.312 282.846C753.155 282.908 749.039 282.01 745.279 280.255C741.706 278.584 738.698 275.868 736.692 272.462C734.457 268.618 733.349 264.21 733.496 259.76C733.37 256.376 734.018 253.033 735.418 249.941C736.817 246.87 738.907 244.154 741.518 242.023C746.846 237.594 755.745 235.38 768.218 235.401C772.856 235.401 777.494 235.735 782.09 236.383V234.878C782.09 228.13 780.648 223.388 777.786 220.609C774.36 217.664 769.91 216.16 765.376 216.473C761.323 216.515 757.312 217.079 753.406 218.102C749.541 219.043 745.759 220.338 742.124 221.988L739.366 209.265C743.336 207.573 747.451 206.257 751.672 205.359C756.978 204.168 762.41 203.562 767.842 203.583C773.608 203.416 779.332 204.46 784.68 206.591C789.381 208.68 793.225 212.336 795.523 216.933C798.385 223.096 799.743 229.864 799.43 236.654V267.072C799.43 270.185 799.618 274.99 799.994 281.446H783.657V281.425ZM773.169 267.386C776.533 265.819 779.562 263.604 782.09 260.847V246.808C778.204 246.348 774.297 246.097 770.39 246.035C763.162 246.035 758.169 247.204 755.39 249.544C754.032 250.693 752.967 252.135 752.236 253.744C751.525 255.373 751.17 257.128 751.233 258.904C751.107 260.429 751.316 261.975 751.839 263.416C752.361 264.858 753.176 266.174 754.262 267.281C756.539 269.203 759.464 270.185 762.452 270.018C766.17 269.955 769.847 269.057 773.169 267.365V267.386Z" fill="white"/>
</g>
<mask id="mask7_1025_159" style="mask-type:luminance" maskUnits="userSpaceOnUse" x="5" y="17" width="1170" height="351">
<path d="M1175 17H5V368H1175V17Z" fill="white"/>
</mask>
<g mask="url(#mask7_1025_159)">
<path d="M812.945 263.082V172.768L830.348 171.368V259.99C830.097 262.456 830.682 264.921 832.019 267.01C832.688 267.72 833.503 268.284 834.422 268.64C835.341 268.995 836.323 269.141 837.305 269.036C838.893 268.974 840.46 268.702 841.985 268.243L844.053 280.778C842.089 281.509 840.063 282.052 837.994 282.365C835.759 282.762 833.503 282.95 831.226 282.971C819.046 282.888 812.945 276.265 812.945 263.082Z" fill="white"/>
</g>
<mask id="mask8_1025_159" style="mask-type:luminance" maskUnits="userSpaceOnUse" x="5" y="17" width="1170" height="351">
<path d="M1175 17H5V368H1175V17Z" fill="white"/>
</mask>
<g mask="url(#mask8_1025_159)">
<path d="M856.505 263.082V172.768L873.929 171.368V259.99C873.678 262.456 874.263 264.921 875.6 267.01C876.269 267.72 877.084 268.284 878.003 268.64C878.922 268.995 879.904 269.141 880.886 269.036C882.474 268.974 884.041 268.702 885.566 268.243L887.592 280.778C885.649 281.509 883.623 282.052 881.554 282.365C879.298 282.762 877.042 282.95 874.765 282.971C862.585 282.888 856.505 276.265 856.484 263.082H856.505Z" fill="white"/>
</g>
<mask id="mask9_1025_159" style="mask-type:luminance" maskUnits="userSpaceOnUse" x="5" y="17" width="1170" height="351">
<path d="M1175 17H5V368H1175V17Z" fill="white"/>
</mask>
<g mask="url(#mask9_1025_159)">
<path d="M959.166 245.429H909.151C909.945 261.453 917.571 269.455 932.028 269.455C935.747 269.455 939.444 268.995 943.059 268.138C946.756 267.282 950.35 266.112 953.86 264.629L957.704 276.62C948.699 280.861 938.838 282.992 928.873 282.846C921.749 283.055 914.667 281.446 908.316 278.166C902.821 275.2 898.413 270.562 895.739 264.921C892.772 258.382 891.331 251.258 891.519 244.092C891.31 236.571 892.856 229.113 895.99 222.281C898.664 216.474 902.988 211.606 908.42 208.242C913.977 204.962 920.349 203.291 926.805 203.416C933.219 203.186 939.528 204.962 944.897 208.493C949.723 211.836 953.463 216.536 955.656 221.989C958.08 227.922 959.271 234.294 959.166 240.708V245.408V245.429ZM942.118 234.315C942.16 229.343 940.51 224.517 937.439 220.61C936.06 219.064 934.368 217.852 932.467 217.038C930.565 216.223 928.518 215.847 926.45 215.93C924.381 215.889 922.313 216.285 920.412 217.079C918.511 217.873 916.777 219.085 915.356 220.61C912.055 224.454 910.029 229.238 909.569 234.273L942.098 234.315H942.118Z" fill="white"/>
</g>
<mask id="mask10_1025_159" style="mask-type:luminance" maskUnits="userSpaceOnUse" x="5" y="17" width="1170" height="351">
<path d="M1175 17H5V368H1175V17Z" fill="white"/>
</mask>
<g mask="url(#mask10_1025_159)">
<path d="M972.433 224.182C972.433 219.982 972.224 213.59 971.848 205.003H988.227C988.498 207.134 988.77 209.683 989.042 212.608C989.313 215.533 989.459 217.956 989.543 219.815C991.298 216.828 993.303 214.007 995.539 211.354C997.461 209.077 999.801 207.197 1002.41 205.755C1005.15 204.272 1008.24 203.52 1011.37 203.583C1013.74 203.52 1016.12 203.812 1018.39 204.439L1016.2 219.606C1013.46 218.813 1010.58 218.604 1007.76 219.021C1004.94 219.418 1002.22 220.421 999.822 221.946C995.957 224.829 992.572 228.318 989.835 232.288V281.425H972.433V224.182Z" fill="white"/>
</g>
<mask id="mask11_1025_159" style="mask-type:luminance" maskUnits="userSpaceOnUse" x="5" y="17" width="1170" height="351">
<path d="M1175 17H5V368H1175V17Z" fill="white"/>
</mask>
<g mask="url(#mask11_1025_159)">
<path d="M1028.15 312.72C1026.02 312.365 1023.91 311.864 1021.84 311.195L1025.02 298.451C1026.5 298.848 1027.99 299.162 1029.49 299.412C1031.18 299.705 1032.9 299.872 1034.59 299.872C1042.38 299.872 1048.19 294.879 1051.99 284.914L1053.14 282.072L1024.94 204.982H1043.65L1057.97 248.061C1059.8 253.597 1061.29 259.259 1062.42 264.983C1063.75 259.468 1065.3 253.931 1067.1 248.416L1081.36 204.982H1098.98L1070.9 282.407C1068.77 288.653 1065.9 294.587 1062.31 300.123C1059.57 304.301 1055.83 307.727 1051.45 310.088C1046.73 312.386 1041.54 313.514 1036.3 313.368C1033.54 313.368 1030.81 313.159 1028.09 312.7L1028.15 312.72Z" fill="white"/>
</g>
<mask id="mask12_1025_159" style="mask-type:luminance" maskUnits="userSpaceOnUse" x="5" y="17" width="1170" height="351">
<path d="M1175 17H5V368H1175V17Z" fill="white"/>
</mask>
<g mask="url(#mask12_1025_159)">
<path d="M370.043 81.0742H401.172L400.315 88.6161H379.131V103.198H399.083V110.218H379.131V126.367H401.422L400.649 134.014H370.043V81.0742Z" fill="white"/>
</g>
<mask id="mask13_1025_159" style="mask-type:luminance" maskUnits="userSpaceOnUse" x="5" y="17" width="1170" height="351">
<path d="M1175 17H5V368H1175V17Z" fill="white"/>
</mask>
<g mask="url(#mask13_1025_159)">
<path d="M422.668 107.001L406.289 81.0742H416.672L427.808 100.127L439.507 81.0742H449.598L433.219 106.666L450.935 133.993H440.405L427.787 113.164L414.938 133.993H404.848L422.647 106.98L422.668 107.001Z" fill="white"/>
</g>
<mask id="mask14_1025_159" style="mask-type:luminance" maskUnits="userSpaceOnUse" x="5" y="17" width="1170" height="351">
<path d="M1175 17H5V368H1175V17Z" fill="white"/>
</mask>
<g mask="url(#mask14_1025_159)">
<path d="M457.66 81.0742H471.929C478.615 81.0742 483.754 82.4322 487.326 85.169C489.102 86.5687 490.523 88.3654 491.442 90.4337C492.361 92.5019 492.779 94.7582 492.654 97.0145C492.758 100.232 491.944 103.428 490.314 106.207C488.726 108.818 486.407 110.928 483.649 112.245C480.578 113.686 477.215 114.417 473.83 114.355C471.47 114.313 469.13 114.083 466.811 113.623V134.014H457.66V81.0742ZM480.578 104.703C481.581 103.742 482.354 102.572 482.856 101.297C483.357 100.002 483.587 98.6232 483.503 97.2443C483.629 95.9282 483.42 94.5911 482.897 93.3585C482.375 92.1259 481.56 91.0604 480.537 90.2247C477.904 88.6161 474.833 87.864 471.762 88.0729H466.811V106.792C468.545 107.105 470.3 107.293 472.075 107.335C475.147 107.565 478.176 106.625 480.599 104.724L480.578 104.703Z" fill="white"/>
</g>
<mask id="mask15_1025_159" style="mask-type:luminance" maskUnits="userSpaceOnUse" x="5" y="17" width="1170" height="351">
<path d="M1175 17H5V368H1175V17Z" fill="white"/>
</mask>
<g mask="url(#mask15_1025_159)">
<path d="M501.699 81.0742H510.829V126.2H532.723L531.95 134.014H501.699V81.0742Z" fill="white"/>
</g>
<mask id="mask16_1025_159" style="mask-type:luminance" maskUnits="userSpaceOnUse" x="5" y="17" width="1170" height="351">
<path d="M1175 17H5V368H1175V17Z" fill="white"/>
</mask>
<g mask="url(#mask16_1025_159)">
<path d="M546.619 131.402C542.775 129.25 539.683 125.991 537.719 122.043C535.588 117.676 534.543 112.85 534.648 108.004C534.543 102.927 535.651 97.8921 537.928 93.3586C539.996 89.2638 543.255 85.8794 547.287 83.6649C551.8 81.3041 556.835 80.1551 561.911 80.3431C566.717 80.2178 571.459 81.3459 575.7 83.644C579.502 85.8167 582.594 89.0758 584.516 93.0034C586.606 97.328 587.629 102.091 587.525 106.875C587.65 112.015 586.522 117.091 584.224 121.688C582.135 125.761 578.876 129.146 574.864 131.381C570.435 133.742 565.484 134.912 560.47 134.808C555.623 134.933 550.839 133.763 546.598 131.423L546.619 131.402ZM570.31 124.926C572.88 123.213 574.885 120.768 576.076 117.906C577.392 114.626 578.04 111.116 577.977 107.586C578.04 104.118 577.455 100.671 576.285 97.4116C575.24 94.5912 573.36 92.1469 570.895 90.392C568.054 88.658 564.774 87.7179 561.431 87.7179C558.088 87.7179 554.808 88.6371 551.967 90.392C549.376 92.1887 547.371 94.6957 546.159 97.5996C544.822 100.733 544.174 104.139 544.216 107.544C544.153 111.054 544.78 114.564 546.034 117.844C547.162 120.852 549.209 123.422 551.883 125.177C554.558 126.931 557.733 127.788 560.93 127.621C564.251 127.704 567.51 126.764 570.289 124.926H570.31Z" fill="white"/>
</g>
<mask id="mask17_1025_159" style="mask-type:luminance" maskUnits="userSpaceOnUse" x="5" y="17" width="1170" height="351">
<path d="M1175 17H5V368H1175V17Z" fill="white"/>
</mask>
<g mask="url(#mask17_1025_159)">
<path d="M597.742 81.0748H614.309C619.156 80.7405 624.003 82.0149 628.035 84.7099C629.581 85.9216 630.835 87.5094 631.649 89.3061C632.464 91.1027 632.84 93.0874 632.715 95.0513C632.778 97.6209 632.193 100.149 631.023 102.447C629.999 104.452 628.599 106.228 626.865 107.67C625.319 108.923 623.585 109.905 621.726 110.616L638.105 134.014H627.45L613.662 112.955H606.955V134.014H597.742V81.0748ZM612.074 106.103C614.1 106.145 616.127 105.706 617.945 104.808C619.595 104.014 620.974 102.781 621.956 101.235C622.917 99.5847 623.418 97.7045 623.376 95.7825C623.481 94.6752 623.293 93.568 622.854 92.5443C622.415 91.5206 621.726 90.6431 620.848 89.9537C618.655 88.5749 616.085 87.9272 613.495 88.1152H606.872V106.207L612.074 106.124V106.103Z" fill="white"/>
</g>
<mask id="mask18_1025_159" style="mask-type:luminance" maskUnits="userSpaceOnUse" x="5" y="17" width="1170" height="351">
<path d="M1175 17H5V368H1175V17Z" fill="white"/>
</mask>
<g mask="url(#mask18_1025_159)">
<path d="M645.228 81.0742H676.419L675.521 88.6161H654.462V103.198H674.226V110.218H654.274V126.367H676.566L675.876 134.014H645.207V81.0742H645.228Z" fill="white"/>
</g>
<mask id="mask19_1025_159" style="mask-type:luminance" maskUnits="userSpaceOnUse" x="5" y="17" width="1170" height="351">
<path d="M1175 17H5V368H1175V17Z" fill="white"/>
</mask>
<g mask="url(#mask19_1025_159)">
<path d="M710.367 81.0742H719.497V134.014H710.367V81.0742Z" fill="white"/>
</g>
<mask id="mask20_1025_159" style="mask-type:luminance" maskUnits="userSpaceOnUse" x="5" y="17" width="1170" height="351">
<path d="M1175 17H5V368H1175V17Z" fill="white"/>
</mask>
<g mask="url(#mask20_1025_159)">
<path d="M743.649 88.6997H727.27L728.063 81.0742H769.241L768.405 88.6997H752.799V133.993H743.649V88.6997Z" fill="white"/>
</g>
<mask id="mask21_1025_159" style="mask-type:luminance" maskUnits="userSpaceOnUse" x="5" y="17" width="1170" height="351">
<path d="M1175 17H5V368H1175V17Z" fill="white"/>
</mask>
<g mask="url(#mask21_1025_159)">
<path d="M808.937 131.402C805.113 129.25 802.021 125.991 800.078 122.043C797.927 117.676 796.861 112.871 796.986 108.004C796.882 102.927 797.989 97.892 800.266 93.3585C802.356 89.2638 805.615 85.9002 809.626 83.6648C814.097 81.3041 819.111 80.1133 824.167 80.2386C829.034 80.1133 833.84 81.2832 838.081 83.623C841.904 85.7749 844.975 89.0549 846.897 92.9825C848.986 97.307 850.031 102.049 849.947 106.855C850.072 111.994 848.944 117.071 846.625 121.667C844.536 125.761 841.277 129.125 837.266 131.36C832.837 133.721 827.885 134.891 822.871 134.787C818.004 134.912 813.198 133.742 808.957 131.402H808.937ZM832.628 124.926C835.197 123.213 837.182 120.768 838.352 117.906C839.668 114.626 840.316 111.116 840.253 107.586C840.316 104.118 839.731 100.671 838.561 97.4115C837.516 94.5911 835.657 92.1468 833.192 90.3919C830.33 88.637 827.05 87.7178 823.707 87.7178C820.364 87.7178 817.084 88.637 814.222 90.3919C811.632 92.1886 809.626 94.6956 808.414 97.5995C807.098 100.754 806.43 104.139 806.471 107.544C806.409 111.054 807.035 114.564 808.289 117.844C809.396 120.727 811.36 123.213 813.888 125.009C816.666 126.827 819.926 127.746 823.247 127.621C826.569 127.683 829.807 126.743 832.586 124.926H832.628Z" fill="white"/>
</g>
<mask id="mask22_1025_159" style="mask-type:luminance" maskUnits="userSpaceOnUse" x="5" y="17" width="1170" height="351">
<path d="M1175 17H5V368H1175V17Z" fill="white"/>
</mask>
<g mask="url(#mask22_1025_159)">
<path d="M860.056 81.0742H870.544L896.721 122.105C896.491 118.199 896.387 114.626 896.387 111.325V81.0951H904.848V134.034H894.695L868.099 92.3557C868.35 97.0354 868.496 101.276 868.496 104.953V134.034H860.035V81.0951L860.056 81.0742Z" fill="white"/>
</g>
<mask id="mask23_1025_159" style="mask-type:luminance" maskUnits="userSpaceOnUse" x="5" y="17" width="1170" height="351">
<path d="M1175 17H5V368H1175V17Z" fill="white"/>
</mask>
<g mask="url(#mask23_1025_159)">
<path fill-rule="evenodd" clip-rule="evenodd" d="M241.347 81.3457H144.222C98.427 81.3457 81.6719 98.1008 81.6719 143.895V241.104C81.6719 286.898 98.427 303.653 144.222 303.653H241.347C287.142 303.653 303.918 286.898 303.918 241.104V143.895C303.96 98.1008 287.205 81.3457 241.347 81.3457Z" fill="#C8102E"/>
</g>
<mask id="mask24_1025_159" style="mask-type:luminance" maskUnits="userSpaceOnUse" x="5" y="17" width="1170" height="351">
<path d="M1175 17H5V368H1175V17Z" fill="white"/>
</mask>
<g mask="url(#mask24_1025_159)">
<path d="M125.672 192.51H131.564V221.591H125.672V209.767H112.364V221.591H106.473V192.51H112.364V204.209H125.672V192.51ZM158.911 209.14C158.911 213.82 156.571 216.389 152.309 216.389C148.047 216.389 145.666 213.82 145.666 208.868V192.489H139.774V209.098C139.774 217.267 144.308 221.946 152.226 221.946C160.144 221.946 164.823 217.267 164.823 208.847V192.489H158.932V209.119L158.911 209.14ZM227.039 212.483L220.437 192.489H215.59L209.03 212.503L202.596 192.489H196.328L206.461 221.57H211.349L217.93 202.475L224.532 221.57H229.462L239.595 192.489H233.474L227.039 212.483ZM250.166 209.035H260.904V203.771H250.166V197.838H265.751V192.51H244.358V221.529H266.315V216.285H250.166V209.056V209.035ZM273.335 221.529H279.164V192.51H273.335V221.529ZM176.46 215.512L173.807 221.55H167.79L180.492 192.51H185.694L198.438 221.55H192.359L189.852 215.533H176.439L176.46 215.512ZM178.654 210.268H187.512L183.062 199.885L178.633 210.268H178.654Z" fill="white"/>
</g>
<mask id="mask25_1025_159" style="mask-type:luminance" maskUnits="userSpaceOnUse" x="5" y="17" width="1170" height="351">
<path d="M1175 17H5V368H1175V17Z" fill="white"/>
</mask>
<g mask="url(#mask25_1025_159)">
<path d="M192.816 155.512C182.997 155.512 173.595 151.605 166.659 144.669C159.723 137.733 155.816 128.332 155.816 118.513H161.039C161.039 126.932 164.382 135.017 170.357 140.992C176.311 146.946 184.396 150.289 192.837 150.289C201.277 150.289 209.341 146.946 215.316 140.992C221.27 135.038 224.634 126.953 224.634 118.513H229.857C229.857 128.332 225.95 137.733 219.014 144.669C212.078 151.605 202.677 155.512 192.857 155.512H192.816Z" fill="white"/>
</g>
</g>
<defs>
<clipPath id="clip0_1025_159">
<rect width="1170" height="351" fill="white" transform="translate(5 17)"/>
</clipPath>
</defs>
</svg>
