<svg width="128" height="128" viewBox="0 0 128 128" fill="none" xmlns="http://www.w3.org/2000/svg">
<g clip-path="url(#clip0_1060_2)">
<rect width="128" height="128" fill="white"/>
<path d="M56.7929 84.9688C44.4179 83.4688 35.6992 74.5625 35.6992 63.0313C35.6992 58.3438 37.3867 53.2813 40.1992 49.9063C38.9804 46.8125 39.1679 40.25 40.5742 37.5313C44.3242 37.0625 49.3867 39.0313 52.3867 41.75C55.9492 40.625 59.6992 40.0625 64.2929 40.0625C68.8867 40.0625 72.6367 40.625 76.0117 41.6563C78.9179 39.0313 84.0742 37.0625 87.8242 37.5313C89.1367 40.0625 89.3242 46.625 88.1054 49.8125C91.1054 53.375 92.6992 58.1563 92.6992 63.0313C92.6992 74.5625 83.9804 83.2813 71.4179 84.875C74.6054 86.9375 76.7617 91.4375 76.7617 96.5938V106.344C76.7617 109.156 79.1054 110.75 81.9179 109.625C98.8867 103.156 112.199 86.1875 112.199 65.1875C112.199 38.6563 90.6367 17 64.1054 17C37.5742 17 16.1992 38.6562 16.1992 65.1875C16.1992 86 29.4179 103.25 47.2304 109.719C49.7617 110.656 52.1992 108.969 52.1992 106.438V98.9375C50.8867 99.5 49.1992 99.875 47.6992 99.875C41.5117 99.875 37.8554 96.5 35.2304 90.2188C34.1992 87.6875 33.0742 86.1875 30.9179 85.9063C29.7929 85.8125 29.4179 85.3438 29.4179 84.7813C29.4179 83.6563 31.2929 82.8125 33.1679 82.8125C35.8867 82.8125 38.2304 84.5 40.6679 87.9688C42.5429 90.6875 44.5117 91.9063 46.8554 91.9063C49.1992 91.9063 50.6992 91.0625 52.8554 88.9063C54.4492 87.3125 55.6679 85.9063 56.7929 84.9688Z" fill="black"/>
</g>
<defs>
<clipPath id="clip0_1060_2">
<rect width="128" height="128" fill="white"/>
</clipPath>
</defs>
</svg>
