<svg width="177" height="56" viewBox="0 0 177 56" fill="none" xmlns="http://www.w3.org/2000/svg">
<rect x="0.75" y="0.75" width="175.5" height="54.5" rx="9.25" fill="white" stroke="black" stroke-width="1.5"/>
<path d="M66.072 41L71.652 28.22H73.488L79.068 41H76.872L75.414 37.652H69.69L68.25 41H66.072ZM72.552 31.064L70.5 35.78H74.604L72.552 31.064ZM82.4604 44.762H80.4804V32H82.4604V33.206C82.7364 32.822 83.1324 32.498 83.6484 32.234C84.1764 31.958 84.7464 31.82 85.3584 31.82C86.5824 31.82 87.6084 32.276 88.4364 33.188C89.2764 34.1 89.6964 35.204 89.6964 36.5C89.6964 37.796 89.2764 38.9 88.4364 39.812C87.6084 40.724 86.5824 41.18 85.3584 41.18C84.7464 41.18 84.1764 41.048 83.6484 40.784C83.1324 40.508 82.7364 40.178 82.4604 39.794V44.762ZM84.9984 39.38C85.7784 39.38 86.4204 39.104 86.9244 38.552C87.4284 38 87.6804 37.316 87.6804 36.5C87.6804 35.684 87.4284 35 86.9244 34.448C86.4204 33.896 85.7784 33.62 84.9984 33.62C84.2064 33.62 83.5584 33.896 83.0544 34.448C82.5504 35 82.2984 35.684 82.2984 36.5C82.2984 37.316 82.5504 38 83.0544 38.552C83.5584 39.104 84.2064 39.38 84.9984 39.38ZM93.6929 44.762H91.7129V32H93.6929V33.206C93.9689 32.822 94.3649 32.498 94.8809 32.234C95.4089 31.958 95.9789 31.82 96.5909 31.82C97.8149 31.82 98.8409 32.276 99.6689 33.188C100.509 34.1 100.929 35.204 100.929 36.5C100.929 37.796 100.509 38.9 99.6689 39.812C98.8409 40.724 97.8149 41.18 96.5909 41.18C95.9789 41.18 95.4089 41.048 94.8809 40.784C94.3649 40.508 93.9689 40.178 93.6929 39.794V44.762ZM96.2309 39.38C97.0109 39.38 97.6529 39.104 98.1569 38.552C98.6609 38 98.9129 37.316 98.9129 36.5C98.9129 35.684 98.6609 35 98.1569 34.448C97.6529 33.896 97.0109 33.62 96.2309 33.62C95.4389 33.62 94.7909 33.896 94.2869 34.448C93.7829 35 93.5309 35.684 93.5309 36.5C93.5309 37.316 93.7829 38 94.2869 38.552C94.7909 39.104 95.4389 39.38 96.2309 39.38ZM111.214 41.216C109.846 41.216 108.736 40.838 107.884 40.082C107.044 39.314 106.6 38.396 106.552 37.328H108.658C108.73 37.94 109.012 38.414 109.504 38.75C110.008 39.086 110.572 39.254 111.196 39.254C111.82 39.254 112.33 39.11 112.726 38.822C113.134 38.522 113.338 38.126 113.338 37.634C113.338 36.77 112.75 36.146 111.574 35.762L110.008 35.24C107.92 34.58 106.876 33.35 106.876 31.55C106.876 30.458 107.248 29.594 107.992 28.958C108.748 28.322 109.732 28.004 110.944 28.004C112.204 28.004 113.206 28.37 113.95 29.102C114.694 29.822 115.108 30.674 115.192 31.658H113.086C112.954 31.094 112.684 30.674 112.276 30.398C111.868 30.11 111.412 29.966 110.908 29.966C110.356 29.966 109.9 30.104 109.54 30.38C109.18 30.644 108.994 30.998 108.982 31.442C108.982 31.898 109.12 32.27 109.396 32.558C109.672 32.834 110.11 33.068 110.71 33.26L112.294 33.764C114.406 34.448 115.462 35.714 115.462 37.562C115.462 38.642 115.066 39.524 114.274 40.208C113.494 40.88 112.474 41.216 111.214 41.216ZM121.424 41.09C120.512 41.09 119.768 40.838 119.192 40.334C118.628 39.818 118.346 39.074 118.346 38.102V33.764H116.474V32H118.346V29.498H120.326V32H122.9V33.764H120.326V37.778C120.326 38.33 120.446 38.726 120.686 38.966C120.926 39.194 121.31 39.308 121.838 39.308C122.27 39.308 122.624 39.248 122.9 39.128V40.892C122.468 41.024 121.976 41.09 121.424 41.09ZM132.07 39.83C131.17 40.73 130.054 41.18 128.722 41.18C127.39 41.18 126.268 40.73 125.356 39.83C124.456 38.918 124.006 37.808 124.006 36.5C124.006 35.192 124.456 34.088 125.356 33.188C126.268 32.276 127.39 31.82 128.722 31.82C130.054 31.82 131.17 32.276 132.07 33.188C132.982 34.088 133.438 35.192 133.438 36.5C133.438 37.808 132.982 38.918 132.07 39.83ZM128.722 39.344C129.502 39.344 130.144 39.074 130.648 38.534C131.164 37.982 131.422 37.304 131.422 36.5C131.422 35.696 131.164 35.024 130.648 34.484C130.144 33.932 129.502 33.656 128.722 33.656C127.93 33.656 127.276 33.932 126.76 34.484C126.256 35.024 126.004 35.696 126.004 36.5C126.004 37.304 126.256 37.982 126.76 38.534C127.276 39.074 127.93 39.344 128.722 39.344ZM135.43 41V32H137.41V33.602C137.578 33.098 137.884 32.69 138.328 32.378C138.784 32.066 139.27 31.91 139.786 31.91C140.098 31.91 140.356 31.934 140.56 31.982V34.016C140.272 33.908 139.942 33.854 139.57 33.854C138.97 33.854 138.46 34.1 138.04 34.592C137.62 35.072 137.41 35.744 137.41 36.608V41H135.43ZM145.929 41.18C144.585 41.18 143.481 40.742 142.617 39.866C141.753 38.978 141.321 37.856 141.321 36.5C141.321 35.144 141.747 34.028 142.599 33.152C143.451 32.264 144.567 31.82 145.947 31.82C147.339 31.82 148.461 32.306 149.313 33.278C150.165 34.238 150.543 35.474 150.447 36.986H143.283C143.307 37.682 143.571 38.264 144.075 38.732C144.579 39.2 145.221 39.434 146.001 39.434C147.105 39.434 147.861 39.014 148.269 38.174H150.339C150.063 39.05 149.535 39.77 148.755 40.334C147.975 40.898 147.033 41.18 145.929 41.18ZM145.893 33.476C145.245 33.476 144.687 33.662 144.219 34.034C143.763 34.394 143.469 34.91 143.337 35.582H148.323C148.179 34.886 147.885 34.364 147.441 34.016C146.997 33.656 146.481 33.476 145.893 33.476Z" fill="black"/>
<path d="M66.072 23L69.84 14.48H70.764L74.544 23H73.38L72.276 20.516H68.304L67.224 23H66.072ZM70.284 15.992L68.748 19.508H71.832L70.284 15.992ZM77.0588 23L74.2868 17H75.4388L77.4908 21.548L79.5428 17H80.6948L77.9228 23H77.0588ZM84.0924 23.12C83.2604 23.12 82.5604 22.816 81.9924 22.208C81.4324 21.6 81.1524 20.864 81.1524 20C81.1524 19.136 81.4324 18.4 81.9924 17.792C82.5604 17.184 83.2604 16.88 84.0924 16.88C84.5324 16.88 84.9404 16.98 85.3164 17.18C85.7004 17.372 85.9964 17.62 86.2044 17.924V17H87.2364V23H86.2044V22.076C85.9964 22.38 85.7004 22.632 85.3164 22.832C84.9404 23.024 84.5324 23.12 84.0924 23.12ZM84.2484 22.172C84.8404 22.172 85.3284 21.964 85.7124 21.548C86.0964 21.132 86.2884 20.616 86.2884 20C86.2884 19.384 86.0964 18.868 85.7124 18.452C85.3284 18.036 84.8404 17.828 84.2484 17.828C83.6484 17.828 83.1564 18.036 82.7724 18.452C82.3884 18.868 82.1964 19.384 82.1964 20C82.1964 20.616 82.3884 21.132 82.7724 21.548C83.1564 21.964 83.6484 22.172 84.2484 22.172ZM90.223 15.188C90.087 15.324 89.915 15.392 89.707 15.392C89.499 15.392 89.323 15.324 89.179 15.188C89.035 15.044 88.963 14.868 88.963 14.66C88.963 14.46 89.035 14.288 89.179 14.144C89.323 14 89.499 13.928 89.707 13.928C89.915 13.928 90.087 14 90.223 14.144C90.359 14.288 90.427 14.46 90.427 14.66C90.427 14.868 90.359 15.044 90.223 15.188ZM89.179 23V17H90.211V23H89.179ZM92.1673 23V14H93.1993V23H92.1673ZM97.6276 23.12C96.7956 23.12 96.0956 22.816 95.5276 22.208C94.9676 21.6 94.6876 20.864 94.6876 20C94.6876 19.136 94.9676 18.4 95.5276 17.792C96.0956 17.184 96.7956 16.88 97.6276 16.88C98.0676 16.88 98.4756 16.98 98.8516 17.18C99.2356 17.372 99.5316 17.62 99.7396 17.924V17H100.772V23H99.7396V22.076C99.5316 22.38 99.2356 22.632 98.8516 22.832C98.4756 23.024 98.0676 23.12 97.6276 23.12ZM97.7836 22.172C98.3756 22.172 98.8636 21.964 99.2476 21.548C99.6316 21.132 99.8236 20.616 99.8236 20C99.8236 19.384 99.6316 18.868 99.2476 18.452C98.8636 18.036 98.3756 17.828 97.7836 17.828C97.1836 17.828 96.6916 18.036 96.3076 18.452C95.9236 18.868 95.7316 19.384 95.7316 20C95.7316 20.616 95.9236 21.132 96.3076 21.548C96.6916 21.964 97.1836 22.172 97.7836 22.172ZM105.858 23.12C105.418 23.12 105.006 23.024 104.622 22.832C104.246 22.632 103.954 22.38 103.746 22.076V23H102.714V14H103.746V17.924C103.954 17.62 104.246 17.372 104.622 17.18C105.006 16.98 105.418 16.88 105.858 16.88C106.69 16.88 107.386 17.184 107.946 17.792C108.514 18.4 108.798 19.136 108.798 20C108.798 20.864 108.514 21.6 107.946 22.208C107.386 22.816 106.69 23.12 105.858 23.12ZM104.238 21.548C104.622 21.964 105.11 22.172 105.702 22.172C106.294 22.172 106.782 21.964 107.166 21.548C107.55 21.132 107.742 20.616 107.742 20C107.742 19.384 107.55 18.868 107.166 18.452C106.782 18.036 106.294 17.828 105.702 17.828C105.11 17.828 104.622 18.036 104.238 18.452C103.854 18.868 103.662 19.384 103.662 20C103.662 20.616 103.854 21.132 104.238 21.548ZM110.273 23V14H111.305V23H110.273ZM115.817 23.12C114.945 23.12 114.221 22.824 113.645 22.232C113.077 21.64 112.793 20.896 112.793 20C112.793 19.096 113.069 18.352 113.621 17.768C114.181 17.176 114.921 16.88 115.841 16.88C116.769 16.88 117.497 17.208 118.025 17.864C118.553 18.52 118.785 19.324 118.721 20.276H113.837C113.853 20.82 114.053 21.276 114.437 21.644C114.821 22.004 115.285 22.184 115.829 22.184C116.645 22.184 117.225 21.848 117.569 21.176H118.625C118.473 21.736 118.149 22.2 117.653 22.568C117.157 22.936 116.545 23.12 115.817 23.12ZM116.993 18.224C116.665 17.936 116.269 17.792 115.805 17.792C115.341 17.792 114.925 17.932 114.557 18.212C114.197 18.492 113.973 18.908 113.885 19.46H117.629C117.533 18.916 117.321 18.504 116.993 18.224ZM125.769 23.12C124.865 23.12 124.113 22.82 123.513 22.22C122.921 21.612 122.625 20.872 122.625 20C122.625 19.128 122.921 18.392 123.513 17.792C124.113 17.184 124.865 16.88 125.769 16.88C126.665 16.88 127.409 17.184 128.001 17.792C128.601 18.392 128.901 19.128 128.901 20C128.901 20.872 128.601 21.612 128.001 22.22C127.409 22.82 126.665 23.12 125.769 23.12ZM124.257 21.536C124.649 21.952 125.153 22.16 125.769 22.16C126.385 22.16 126.885 21.952 127.269 21.536C127.653 21.12 127.845 20.608 127.845 20C127.845 19.392 127.653 18.88 127.269 18.464C126.885 18.048 126.385 17.84 125.769 17.84C125.153 17.84 124.649 18.048 124.257 18.464C123.873 18.88 123.681 19.392 123.681 20C123.681 20.608 123.873 21.12 124.257 21.536ZM130.382 23V17H131.414V17.924C131.822 17.228 132.458 16.88 133.322 16.88C134.002 16.88 134.55 17.1 134.966 17.54C135.382 17.98 135.59 18.568 135.59 19.304V23H134.57V19.46C134.57 18.956 134.442 18.56 134.186 18.272C133.93 17.976 133.586 17.828 133.154 17.828C132.658 17.828 132.242 18.024 131.906 18.416C131.578 18.808 131.414 19.344 131.414 20.024V23H130.382Z" fill="#9194B1"/>
<path d="M44.8211 12C44.894 12 44.967 12 45.0442 12C45.2232 14.2119 44.379 15.8646 43.3529 17.0614C42.3461 18.25 40.9675 19.4027 38.7377 19.2278C38.589 17.0476 39.4346 15.5175 40.4593 14.3234C41.4096 13.2106 43.1518 12.2204 44.8211 12Z" fill="black"/>
<path d="M51.57 35.0214C51.57 35.0435 51.57 35.0627 51.57 35.0834C50.9434 36.9813 50.0495 38.6078 48.9587 40.1173C47.963 41.4876 46.7427 43.3318 44.5639 43.3318C42.6812 43.3318 41.4307 42.1212 39.5012 42.0881C37.4601 42.055 36.3376 43.1004 34.4715 43.3634C34.258 43.3634 34.0445 43.3634 33.8352 43.3634C32.4648 43.1651 31.3589 42.0798 30.5532 41.102C28.1774 38.2125 26.3416 34.4802 26 29.7039C26 29.2356 26 28.7687 26 28.3005C26.1446 24.8821 27.8056 22.1028 30.0133 20.7559C31.1785 20.0397 32.7802 19.4296 34.5637 19.7023C35.3281 19.8207 36.109 20.0824 36.7935 20.3413C37.4422 20.5906 38.2534 21.0327 39.0219 21.0093C39.5425 20.9942 40.0603 20.7228 40.5851 20.5314C42.1221 19.9764 43.6288 19.3401 45.6148 19.6389C48.0016 19.9998 49.6956 21.0603 50.7423 22.6964C48.7232 23.9814 47.127 25.9178 47.3997 29.2246C47.6421 32.2284 49.3884 33.9857 51.57 35.0214Z" fill="black"/>
</svg>
