<svg width="26" height="26" viewBox="0 0 26 26" fill="none" xmlns="http://www.w3.org/2000/svg">
<path fill-rule="evenodd" clip-rule="evenodd" d="M4.72727 0C3.47352 0 2.27112 0.498051 1.38459 1.38459C0.498051 2.27112 0 3.47352 0 4.72727V21.2727C0 22.5265 0.498051 23.7289 1.38459 24.6154C2.27112 25.5019 3.47352 26 4.72727 26H21.2727C22.5265 26 23.7289 25.5019 24.6154 24.6154C25.5019 23.7289 26 22.5265 26 21.2727V4.72727C26 3.47352 25.5019 2.27112 24.6154 1.38459C23.7289 0.498051 22.5265 0 21.2727 0H4.72727ZM6.15136 8.16636C6.68577 8.16636 7.1983 7.95407 7.57618 7.57618C7.95407 7.1983 8.16636 6.68577 8.16636 6.15136C8.16636 5.61695 7.95407 5.10443 7.57618 4.72654C7.1983 4.34866 6.68577 4.13636 6.15136 4.13636C5.61695 4.13636 5.10443 4.34866 4.72654 4.72654C4.34866 5.10443 4.13636 5.61695 4.13636 6.15136C4.13636 6.68577 4.34866 7.1983 4.72654 7.57618C5.10443 7.95407 5.61695 8.16636 6.15136 8.16636ZM8.16518 21.8636V9.77718H4.13636V21.8636H8.16518ZM13.403 9.77718H9.77718V21.8636H13.403V14.5718C13.8698 13.8131 14.6758 13 15.8198 13C17.4318 13 17.8348 14.612 17.8348 15.418V21.8636H21.8636V15.418C21.8636 13.2576 20.9217 9.77718 17.4318 9.77718C15.2124 9.77718 13.9809 10.5867 13.4018 11.3455L13.403 9.77718Z" fill="black"/>
</svg>
