<svg width="26" height="26" viewBox="0 0 26 26" fill="none" xmlns="http://www.w3.org/2000/svg">
<path fill-rule="evenodd" clip-rule="evenodd" d="M4.72727 0C2.11647 0 0 2.11647 0 4.72727V21.2727C0 23.8835 2.11647 26 4.72727 26H21.2727C23.8835 26 26 23.8835 26 21.2727V4.72727C26 2.11647 23.8835 0 21.2727 0H4.72727ZM4.3322 4.13636C4.12496 4.2135 3.9501 4.36692 3.84804 4.57163C3.69807 4.8724 3.73113 5.23213 3.9334 5.50055L10.5683 14.3054L3.57681 21.8029C3.55848 21.8226 3.54122 21.8428 3.52502 21.8636H5.9441L11.6517 15.743L16.0401 21.5668C16.143 21.7033 16.2816 21.8053 16.4377 21.8636H21.664C21.8706 21.7863 22.045 21.6332 22.1468 21.4288C22.2968 21.1281 22.2638 20.7683 22.0615 20.4999L15.4265 11.695L22.475 4.13636H20.0511L14.3431 10.2574L9.95469 4.43369C9.85153 4.2968 9.71247 4.19464 9.55583 4.13636H4.3322ZM17.19 20.147L6.41904 5.85347H8.80488L19.5759 20.147H17.19Z" fill="black"/>
</svg>
