<svg width="26" height="26" viewBox="0 0 26 26" fill="none" xmlns="http://www.w3.org/2000/svg">
<path fill-rule="evenodd" clip-rule="evenodd" d="M4.72727 0C3.47352 0 2.27112 0.498051 1.38459 1.38459C0.498051 2.27112 0 3.47352 0 4.72727V21.2727C0 22.5265 0.498051 23.7289 1.38459 24.6154C2.27112 25.5019 3.47352 26 4.72727 26H21.2727C22.5265 26 23.7289 25.5019 24.6154 24.6154C25.5019 23.7289 26 22.5265 26 21.2727V4.72727C26 3.47352 25.5019 2.27112 24.6154 1.38459C23.7289 0.498051 22.5265 0 21.2727 0H4.72727ZM6.87227 6.03909C8.58163 4.58563 10.7527 3.78834 12.9965 3.79009C15.2403 3.78716 17.4119 4.5834 19.1221 6.03612C20.8323 7.48884 21.9692 9.50309 22.3292 11.7179C22.6892 13.9327 22.2487 16.2034 21.0866 18.1229C19.9246 20.0425 18.1169 21.4855 15.9876 22.1934C15.509 22.2844 15.3554 22.0055 15.3554 21.7537V19.1395C15.3787 18.8201 15.3332 18.4994 15.2218 18.199C15.1105 17.8987 14.936 17.6258 14.7101 17.3987C16.8137 17.1659 19.0214 16.3694 19.0214 12.74C19.0361 11.8011 18.6882 10.8926 18.0499 10.2038C18.3377 9.38937 18.3039 8.49582 17.9554 7.70545C17.9554 7.70545 17.1683 7.45255 15.3625 8.67455C13.8145 8.24974 12.1807 8.24974 10.6328 8.67455C8.83054 7.45255 8.03636 7.70545 8.03636 7.70545C7.68829 8.49604 7.65531 9.38973 7.94418 10.2038C7.30649 10.8921 6.9582 11.7994 6.97155 12.7376C6.97155 16.3575 9.17682 17.1671 11.2734 17.4058C10.9298 17.7405 10.7169 18.1868 10.673 18.6645C10.4413 18.7946 10.1862 18.8775 9.92233 18.9085C9.65844 18.9394 9.39104 18.9178 9.13556 18.8448C8.88008 18.7719 8.64159 18.649 8.43386 18.4834C8.22613 18.3177 8.05327 18.1126 7.92527 17.8797C7.77417 17.6181 7.5653 17.3945 7.3146 17.2259C7.0639 17.0574 6.778 16.9483 6.47873 16.9071C6.47873 16.9071 5.55691 16.8953 6.41491 17.4826C6.91836 17.8029 7.28945 18.2934 7.46318 18.863C7.46318 18.863 8.00564 20.6771 10.6328 20.1075C10.6364 20.7031 10.6352 21.2054 10.6328 21.5138V21.7502C10.6328 21.9984 10.4839 22.2761 10.0124 22.1934C8.4229 21.6653 7.00251 20.7239 5.89685 19.4658C4.79118 18.2077 4.04004 16.6782 3.72045 15.0341C3.40087 13.3899 3.52434 11.6904 4.0782 10.1097C4.63206 8.52907 5.59638 7.12416 6.87227 6.03909Z" fill="black"/>
</svg>
