<svg width="32" height="32" viewBox="0 0 32 32" fill="none" xmlns="http://www.w3.org/2000/svg">
	<path 
		fill-rule="evenodd"
		clip-rule="evenodd"
		fill="black"
		d="M5.81818 0C4.2751 0 2.79523 0.612985 1.70411 1.70411C0.612985 2.79523 0 4.2751 0 5.81818V26.1818C0 27.7249 
		0.612985 29.2048 1.70411 30.2959C2.79523 31.387 4.2751 32 5.81818 32H26.1818C27.7249 32 29.2048 31.387 30.2959
		30.2959C31.387 29.2048 32 27.7249 32 26.1818V5.81818C32 4.2751 31.387 2.79523 30.2959 1.70411C29.2048 0.612985
		27.7249 0 26.1818 0H5.81818ZM8.45818 7.43273C10.562 5.64385 13.2341 4.66257 15.9956 4.66473C18.7573 4.66112
		21.4301 5.64111 23.5349 7.42907C25.6397 9.21703 27.039 11.6961 27.4821 14.422C27.9252 17.148 27.383 19.9426
		25.9528 22.3051C24.5226 24.6677 22.2978 26.4437 19.6771 27.3149C19.088 27.4269 18.8989 27.0836 18.8989
		26.7738V23.5564C18.9276 23.1632 18.8716 22.7685 18.7346 22.3988C18.5975 22.0292 18.3828 21.6933 18.1047
		21.4138C20.6938 21.1273 23.4109 20.1469 23.4109 15.68C23.4291 14.5244 23.0008 13.4063 22.2153 12.5585C22.5694
		11.5562 22.5278 10.4564 22.0989 9.48364C22.0989 9.48364 21.1302 9.17236 18.9076 10.6764C17.0025 10.1535 14.9917
		10.1535 13.0865 10.6764C10.8684 9.17236 9.89091 9.48364 9.89091 9.48364C9.46251 10.4567 9.42192 11.5566 9.77746
		12.5585C8.99261 13.4057 8.56394 14.5224 8.58036 15.6771C8.58036 20.1324 11.2945 21.1287 13.8749 21.4225C13.4521
		21.8345 13.1901 22.3838 13.136 22.9716C12.8509 23.1318 12.5369 23.2339 12.2121 23.272C11.8873 23.3101 11.5582
		23.2835 11.2438 23.1937C10.9293 23.1039 10.6358 22.9526 10.3801 22.7488C10.1245 22.5449 9.91172 22.2924 9.75418
		22.0058C9.56821 21.6839 9.31113 21.4086 9.00258 21.2012C8.69403 20.9937 8.34215 20.8595 7.97382 20.8087C7.97382
		20.8087 6.83927 20.7942 7.89527 21.5171C8.51491 21.9113 8.97164 22.5149 9.18546 23.216C9.18546 23.216 9.85309 
		25.4487 13.0865 24.7476C13.0909 25.4807 13.0895 26.0989 13.0865 26.4785V26.7695C13.0865 27.0749 12.9033 27.4167
		12.3229 27.3149C10.3667 26.6649 8.61847 25.5063 7.25766 23.9579C5.89684 22.4095 4.97236 20.527 4.57902
		18.5035C4.18568 16.4799 4.33765 14.3882 5.01932 12.4428C5.701 10.4973 6.88786 8.7682 8.45818 7.43273Z"
	/>
</svg>
