<svg width="177" height="56" viewBox="0 0 177 56" fill="none" xmlns="http://www.w3.org/2000/svg">
<rect x="0.75" y="0.75" width="175.5" height="54.5" rx="9.25" fill="white" stroke="black" stroke-width="1.5"/>
<path d="M26.5064 14.4377C26.151 14.8641 25.9713 15.4099 26.0037 15.964V40.0375C25.9731 40.5914 26.1526 41.1365 26.5064 41.5638L26.5887 41.6461L40.0695 28.1561V27.8363L26.5887 14.3555L26.5064 14.4377Z" fill="url(#paint0_linear_188_417)"/>
<path d="M44.567 32.6536L40.0703 28.157V27.8371L44.567 23.3496L44.6675 23.4044L49.9958 26.4296C51.5221 27.2887 51.5221 28.7054 49.9958 29.5736L44.6675 32.5988L44.567 32.6536Z" fill="url(#paint1_linear_188_417)"/>
<path d="M44.6661 32.5991L40.0963 28.0293L26.5059 41.5649C26.8191 41.8225 27.2091 41.9685 27.6145 41.9801C28.0199 41.9917 28.4176 41.8681 28.745 41.6289L44.6387 32.5991" fill="url(#paint2_linear_188_417)"/>
<path d="M44.6661 23.4045L28.745 14.3655C28.4211 14.1165 28.0207 13.9876 27.6124 14.0009C27.204 14.0143 26.8129 14.169 26.5059 14.4386L40.0689 28.0017L44.6661 23.4045Z" fill="url(#paint3_linear_188_417)"/>
<path opacity="0.1" d="M44.5656 32.498L28.7451 41.4731C28.4295 41.7082 28.0465 41.8352 27.6529 41.8352C27.2594 41.8352 26.8763 41.7082 26.5608 41.4731L26.4785 41.5553L26.5608 41.6376C26.8763 41.8727 27.2594 41.9997 27.6529 41.9997C28.0465 41.9997 28.4295 41.8727 28.7451 41.6376L44.6387 32.6077L44.5656 32.498Z" fill="black"/>
<path opacity="0.07" d="M26.5061 41.4183C26.1518 40.9877 25.9723 40.4396 26.0035 39.8828V40.0382C25.9728 40.5921 26.1524 41.1372 26.5061 41.5645L26.5884 41.4822L26.5061 41.4183Z" fill="black"/>
<path opacity="0.07" d="M49.9953 29.4089L44.5664 32.498L44.6669 32.5986L49.9953 29.5368C50.3078 29.3994 50.5783 29.1815 50.779 28.9053C50.9797 28.6291 51.1035 28.3045 51.1377 27.9648C51.0754 28.2789 50.9393 28.5735 50.7406 28.8246C50.542 29.0757 50.2865 29.276 49.9953 29.4089Z" fill="black"/>
<path opacity="0.3" d="M28.7458 14.5305L49.9951 26.5855C50.2835 26.7151 50.5373 26.911 50.7358 27.1571C50.9343 27.4033 51.072 27.6928 51.1376 28.0021C51.1052 27.6618 50.9821 27.3365 50.7812 27.06C50.5803 26.7835 50.3088 26.566 49.9951 26.4301L28.7458 14.3659C27.2469 13.5068 26.0039 14.2197 26.0039 15.9654V16.1207C26.0039 14.3842 27.2469 13.6622 28.7458 14.5305Z" fill="white"/>
<path d="M74.82 29.426C75.648 30.218 76.062 31.208 76.062 32.396C76.062 33.584 75.648 34.58 74.82 35.384C73.992 36.176 72.93 36.572 71.634 36.572H69.672V41H67.566V28.22H71.634C72.93 28.22 73.992 28.622 74.82 29.426ZM73.344 33.98C73.776 33.56 73.992 33.032 73.992 32.396C73.992 31.76 73.776 31.238 73.344 30.83C72.924 30.41 72.348 30.2 71.616 30.2H69.672V34.592H71.616C72.348 34.592 72.924 34.388 73.344 33.98ZM77.8437 41V27.5H79.8237V41H77.8437ZM86.1743 41.18C84.9503 41.18 83.9183 40.724 83.0783 39.812C82.2503 38.9 81.8363 37.796 81.8363 36.5C81.8363 35.204 82.2503 34.1 83.0783 33.188C83.9183 32.276 84.9503 31.82 86.1743 31.82C86.7863 31.82 87.3503 31.958 87.8663 32.234C88.3823 32.498 88.7783 32.822 89.0543 33.206V32H91.0343V41H89.0543V39.794C88.7783 40.178 88.3823 40.508 87.8663 40.784C87.3503 41.048 86.7863 41.18 86.1743 41.18ZM84.6083 38.552C85.1123 39.104 85.7543 39.38 86.5343 39.38C87.3143 39.38 87.9563 39.104 88.4603 38.552C88.9643 38 89.2163 37.316 89.2163 36.5C89.2163 35.684 88.9643 35 88.4603 34.448C87.9563 33.896 87.3143 33.62 86.5343 33.62C85.7543 33.62 85.1123 33.896 84.6083 34.448C84.1043 35 83.8523 35.684 83.8523 36.5C83.8523 37.316 84.1043 38 84.6083 38.552ZM96.5968 44.762H94.4188L96.3448 40.514L92.4748 32H94.6528L97.4068 38.372L100.179 32H102.375L96.5968 44.762ZM111.618 41.216C110.25 41.216 109.14 40.838 108.288 40.082C107.448 39.314 107.004 38.396 106.956 37.328H109.062C109.134 37.94 109.416 38.414 109.908 38.75C110.412 39.086 110.976 39.254 111.6 39.254C112.224 39.254 112.734 39.11 113.13 38.822C113.538 38.522 113.742 38.126 113.742 37.634C113.742 36.77 113.154 36.146 111.978 35.762L110.412 35.24C108.324 34.58 107.28 33.35 107.28 31.55C107.28 30.458 107.652 29.594 108.396 28.958C109.152 28.322 110.136 28.004 111.348 28.004C112.608 28.004 113.61 28.37 114.354 29.102C115.098 29.822 115.512 30.674 115.596 31.658H113.49C113.358 31.094 113.088 30.674 112.68 30.398C112.272 30.11 111.816 29.966 111.312 29.966C110.76 29.966 110.304 30.104 109.944 30.38C109.584 30.644 109.398 30.998 109.386 31.442C109.386 31.898 109.524 32.27 109.8 32.558C110.076 32.834 110.514 33.068 111.114 33.26L112.698 33.764C114.81 34.448 115.866 35.714 115.866 37.562C115.866 38.642 115.47 39.524 114.678 40.208C113.898 40.88 112.878 41.216 111.618 41.216ZM121.828 41.09C120.916 41.09 120.172 40.838 119.596 40.334C119.032 39.818 118.75 39.074 118.75 38.102V33.764H116.878V32H118.75V29.498H120.73V32H123.304V33.764H120.73V37.778C120.73 38.33 120.85 38.726 121.09 38.966C121.33 39.194 121.714 39.308 122.242 39.308C122.674 39.308 123.028 39.248 123.304 39.128V40.892C122.872 41.024 122.38 41.09 121.828 41.09ZM132.475 39.83C131.575 40.73 130.459 41.18 129.127 41.18C127.795 41.18 126.673 40.73 125.761 39.83C124.861 38.918 124.411 37.808 124.411 36.5C124.411 35.192 124.861 34.088 125.761 33.188C126.673 32.276 127.795 31.82 129.127 31.82C130.459 31.82 131.575 32.276 132.475 33.188C133.387 34.088 133.843 35.192 133.843 36.5C133.843 37.808 133.387 38.918 132.475 39.83ZM129.127 39.344C129.907 39.344 130.549 39.074 131.053 38.534C131.569 37.982 131.827 37.304 131.827 36.5C131.827 35.696 131.569 35.024 131.053 34.484C130.549 33.932 129.907 33.656 129.127 33.656C128.335 33.656 127.681 33.932 127.165 34.484C126.661 35.024 126.409 35.696 126.409 36.5C126.409 37.304 126.661 37.982 127.165 38.534C127.681 39.074 128.335 39.344 129.127 39.344ZM135.834 41V32H137.814V33.602C137.982 33.098 138.288 32.69 138.732 32.378C139.188 32.066 139.674 31.91 140.19 31.91C140.502 31.91 140.76 31.934 140.964 31.982V34.016C140.676 33.908 140.346 33.854 139.974 33.854C139.374 33.854 138.864 34.1 138.444 34.592C138.024 35.072 137.814 35.744 137.814 36.608V41H135.834ZM146.333 41.18C144.989 41.18 143.885 40.742 143.021 39.866C142.157 38.978 141.725 37.856 141.725 36.5C141.725 35.144 142.151 34.028 143.003 33.152C143.855 32.264 144.971 31.82 146.351 31.82C147.743 31.82 148.865 32.306 149.717 33.278C150.569 34.238 150.947 35.474 150.851 36.986H143.687C143.711 37.682 143.975 38.264 144.479 38.732C144.983 39.2 145.625 39.434 146.405 39.434C147.509 39.434 148.265 39.014 148.673 38.174H150.743C150.467 39.05 149.939 39.77 149.159 40.334C148.379 40.898 147.437 41.18 146.333 41.18ZM146.297 33.476C145.649 33.476 145.091 33.662 144.623 34.034C144.167 34.394 143.873 34.91 143.741 35.582H148.727C148.583 34.886 148.289 34.364 147.845 34.016C147.401 33.656 146.885 33.476 146.297 33.476Z" fill="black"/>
<path d="M66.072 23L69.84 14.48H70.764L74.544 23H73.38L72.276 20.516H68.304L67.224 23H66.072ZM70.284 15.992L68.748 19.508H71.832L70.284 15.992ZM77.0588 23L74.2868 17H75.4388L77.4908 21.548L79.5428 17H80.6948L77.9228 23H77.0588ZM84.0924 23.12C83.2604 23.12 82.5604 22.816 81.9924 22.208C81.4324 21.6 81.1524 20.864 81.1524 20C81.1524 19.136 81.4324 18.4 81.9924 17.792C82.5604 17.184 83.2604 16.88 84.0924 16.88C84.5324 16.88 84.9404 16.98 85.3164 17.18C85.7004 17.372 85.9964 17.62 86.2044 17.924V17H87.2364V23H86.2044V22.076C85.9964 22.38 85.7004 22.632 85.3164 22.832C84.9404 23.024 84.5324 23.12 84.0924 23.12ZM84.2484 22.172C84.8404 22.172 85.3284 21.964 85.7124 21.548C86.0964 21.132 86.2884 20.616 86.2884 20C86.2884 19.384 86.0964 18.868 85.7124 18.452C85.3284 18.036 84.8404 17.828 84.2484 17.828C83.6484 17.828 83.1564 18.036 82.7724 18.452C82.3884 18.868 82.1964 19.384 82.1964 20C82.1964 20.616 82.3884 21.132 82.7724 21.548C83.1564 21.964 83.6484 22.172 84.2484 22.172ZM90.223 15.188C90.087 15.324 89.915 15.392 89.707 15.392C89.499 15.392 89.323 15.324 89.179 15.188C89.035 15.044 88.963 14.868 88.963 14.66C88.963 14.46 89.035 14.288 89.179 14.144C89.323 14 89.499 13.928 89.707 13.928C89.915 13.928 90.087 14 90.223 14.144C90.359 14.288 90.427 14.46 90.427 14.66C90.427 14.868 90.359 15.044 90.223 15.188ZM89.179 23V17H90.211V23H89.179ZM92.1673 23V14H93.1993V23H92.1673ZM97.6276 23.12C96.7956 23.12 96.0956 22.816 95.5276 22.208C94.9676 21.6 94.6876 20.864 94.6876 20C94.6876 19.136 94.9676 18.4 95.5276 17.792C96.0956 17.184 96.7956 16.88 97.6276 16.88C98.0676 16.88 98.4756 16.98 98.8516 17.18C99.2356 17.372 99.5316 17.62 99.7396 17.924V17H100.772V23H99.7396V22.076C99.5316 22.38 99.2356 22.632 98.8516 22.832C98.4756 23.024 98.0676 23.12 97.6276 23.12ZM97.7836 22.172C98.3756 22.172 98.8636 21.964 99.2476 21.548C99.6316 21.132 99.8236 20.616 99.8236 20C99.8236 19.384 99.6316 18.868 99.2476 18.452C98.8636 18.036 98.3756 17.828 97.7836 17.828C97.1836 17.828 96.6916 18.036 96.3076 18.452C95.9236 18.868 95.7316 19.384 95.7316 20C95.7316 20.616 95.9236 21.132 96.3076 21.548C96.6916 21.964 97.1836 22.172 97.7836 22.172ZM105.858 23.12C105.418 23.12 105.006 23.024 104.622 22.832C104.246 22.632 103.954 22.38 103.746 22.076V23H102.714V14H103.746V17.924C103.954 17.62 104.246 17.372 104.622 17.18C105.006 16.98 105.418 16.88 105.858 16.88C106.69 16.88 107.386 17.184 107.946 17.792C108.514 18.4 108.798 19.136 108.798 20C108.798 20.864 108.514 21.6 107.946 22.208C107.386 22.816 106.69 23.12 105.858 23.12ZM104.238 21.548C104.622 21.964 105.11 22.172 105.702 22.172C106.294 22.172 106.782 21.964 107.166 21.548C107.55 21.132 107.742 20.616 107.742 20C107.742 19.384 107.55 18.868 107.166 18.452C106.782 18.036 106.294 17.828 105.702 17.828C105.11 17.828 104.622 18.036 104.238 18.452C103.854 18.868 103.662 19.384 103.662 20C103.662 20.616 103.854 21.132 104.238 21.548ZM110.273 23V14H111.305V23H110.273ZM115.817 23.12C114.945 23.12 114.221 22.824 113.645 22.232C113.077 21.64 112.793 20.896 112.793 20C112.793 19.096 113.069 18.352 113.621 17.768C114.181 17.176 114.921 16.88 115.841 16.88C116.769 16.88 117.497 17.208 118.025 17.864C118.553 18.52 118.785 19.324 118.721 20.276H113.837C113.853 20.82 114.053 21.276 114.437 21.644C114.821 22.004 115.285 22.184 115.829 22.184C116.645 22.184 117.225 21.848 117.569 21.176H118.625C118.473 21.736 118.149 22.2 117.653 22.568C117.157 22.936 116.545 23.12 115.817 23.12ZM116.993 18.224C116.665 17.936 116.269 17.792 115.805 17.792C115.341 17.792 114.925 17.932 114.557 18.212C114.197 18.492 113.973 18.908 113.885 19.46H117.629C117.533 18.916 117.321 18.504 116.993 18.224ZM125.769 23.12C124.865 23.12 124.113 22.82 123.513 22.22C122.921 21.612 122.625 20.872 122.625 20C122.625 19.128 122.921 18.392 123.513 17.792C124.113 17.184 124.865 16.88 125.769 16.88C126.665 16.88 127.409 17.184 128.001 17.792C128.601 18.392 128.901 19.128 128.901 20C128.901 20.872 128.601 21.612 128.001 22.22C127.409 22.82 126.665 23.12 125.769 23.12ZM124.257 21.536C124.649 21.952 125.153 22.16 125.769 22.16C126.385 22.16 126.885 21.952 127.269 21.536C127.653 21.12 127.845 20.608 127.845 20C127.845 19.392 127.653 18.88 127.269 18.464C126.885 18.048 126.385 17.84 125.769 17.84C125.153 17.84 124.649 18.048 124.257 18.464C123.873 18.88 123.681 19.392 123.681 20C123.681 20.608 123.873 21.12 124.257 21.536ZM130.382 23V17H131.414V17.924C131.822 17.228 132.458 16.88 133.322 16.88C134.002 16.88 134.55 17.1 134.966 17.54C135.382 17.98 135.59 18.568 135.59 19.304V23H134.57V19.46C134.57 18.956 134.442 18.56 134.186 18.272C133.93 17.976 133.586 17.828 133.154 17.828C132.658 17.828 132.242 18.024 131.906 18.416C131.578 18.808 131.414 19.344 131.414 20.024V23H130.382Z" fill="#9194B1"/>
<defs>
<linearGradient id="paint0_linear_188_417" x1="38.8813" y1="15.7081" x2="20.6114" y2="33.978" gradientUnits="userSpaceOnUse">
<stop stop-color="#008EFF"/>
<stop offset="0.01" stop-color="#008FFF"/>
<stop offset="0.26" stop-color="#00ACFF"/>
<stop offset="0.51" stop-color="#00C0FF"/>
<stop offset="0.76" stop-color="#00CDFF"/>
<stop offset="1" stop-color="#00D1FF"/>
</linearGradient>
<linearGradient id="paint1_linear_188_417" x1="50.1786" y1="28.0016" x2="23.8385" y2="28.0016" gradientUnits="userSpaceOnUse">
<stop stop-color="#FFD800"/>
<stop offset="1" stop-color="#FF8A00"/>
</linearGradient>
<linearGradient id="paint2_linear_188_417" x1="42.171" y1="30.497" x2="17.4029" y2="55.2651" gradientUnits="userSpaceOnUse">
<stop stop-color="#FF3A44"/>
<stop offset="1" stop-color="#B11162"/>
</linearGradient>
<linearGradient id="paint3_linear_188_417" x1="23.0877" y1="6.42328" x2="34.1556" y2="17.4821" gradientUnits="userSpaceOnUse">
<stop stop-color="#328E71"/>
<stop offset="0.07" stop-color="#2D9571"/>
<stop offset="0.48" stop-color="#15BD74"/>
<stop offset="0.8" stop-color="#06D575"/>
<stop offset="1" stop-color="#00DE76"/>
</linearGradient>
</defs>
</svg>
