<svg xmlns="http://www.w3.org/2000/svg" xmlns:xlink="http://www.w3.org/1999/xlink" width="2457" height="512" viewBox="0 0 2457 512">
  <defs>
    <radialGradient id="radial-gradient" cx="0.5" cy="0.5" r="0.5" gradientUnits="objectBoundingBox">
      <stop offset="0" stop-color="#fff"/>
      <stop offset="0.086" stop-color="#fff"/>
      <stop offset="0.279" stop-color="#00ffeb"/>
      <stop offset="0.54" stop-color="#fff"/>
      <stop offset="0.712" stop-color="#fff"/>
      <stop offset="0.829" stop-color="#fff"/>
      <stop offset="1" stop-color="#45f8ff"/>
    </radialGradient>
    <linearGradient id="linear-gradient" x1="1.212" y1="-0.432" x2="-0.255" y2="1.355" gradientUnits="objectBoundingBox">
      <stop offset="0" stop-color="#130753"/>
      <stop offset="1" stop-color="#777aec"/>
    </linearGradient>
    <linearGradient id="linear-gradient-2" x1="-0.113" y1="0" x2="1.342" y2="1.447" xlink:href="#linear-gradient"/>
    <linearGradient id="linear-gradient-3" x1="0.5" y1="1.434" x2="0.789" y2="-0.274" xlink:href="#linear-gradient"/>
    <linearGradient id="linear-gradient-4" x1="0.5" y1="-0.8" x2="0.5" y2="1.531" xlink:href="#linear-gradient"/>
    <linearGradient id="linear-gradient-5" x1="1.089" y1="1.679" x2="0.205" y2="-0.456" gradientUnits="objectBoundingBox">
      <stop offset="0" stop-color="#7578ec"/>
      <stop offset="1" stop-color="#5c5bc3"/>
    </linearGradient>
    <linearGradient id="linear-gradient-6" x1="0.761" y1="1.093" x2="-0.359" y2="-0.408" xlink:href="#linear-gradient"/>
    <linearGradient id="linear-gradient-7" x1="1.123" y1="-0.299" x2="-0.358" y2="1.18" xlink:href="#linear-gradient"/>
    <linearGradient id="linear-gradient-8" x1="1.503" y1="-0.333" x2="-0.631" y2="1.49" xlink:href="#linear-gradient"/>
    <linearGradient id="linear-gradient-9" x1="-0.71" y1="-0.98" x2="1.654" y2="1.525" xlink:href="#linear-gradient"/>
  </defs>
  <rect id="Rectángulo_6" data-name="Rectángulo 6" width="512" height="512" rx="100" fill="#7678ec"/>
  <g id="Grupo_2191" data-name="Grupo 2191">
    <path id="Trazado_1243" data-name="Trazado 1243" d="M344.642,276.236V107.027a12.932,12.932,0,0,0-6.56-11.235l-148.8-84.6a13.324,13.324,0,0,0-13.166,0l-148.8,84.6a12.932,12.932,0,0,0-6.56,11.235V276.236a12.932,12.932,0,0,0,6.56,11.235l148.8,84.6a13.324,13.324,0,0,0,13.166,0l148.8-84.6a12.932,12.932,0,0,0,6.56-11.235Z" transform="translate(73.127 64.23)" fill="aqua"/>
    <path id="Trazado_1244" data-name="Trazado 1244" d="M323.053,258.453V100.523a12.07,12.07,0,0,0-6.123-10.486L178.051,11.071a12.436,12.436,0,0,0-12.288,0L26.883,90.036a12.07,12.07,0,0,0-6.123,10.486v157.93a12.07,12.07,0,0,0,6.123,10.486L165.762,347.9a12.435,12.435,0,0,0,12.288,0l138.88-78.965a12.07,12.07,0,0,0,6.123-10.486Z" transform="translate(84.094 76.369)" opacity="0.999" fill="url(#radial-gradient)"/>
    <path id="Trazado_1245" data-name="Trazado 1245" d="M166.1,0,0,93.994V282.1l166.1,93.994,166.1-93.994V93.994Z" transform="translate(89.896 67.971)" fill="#45f8ff"/>
    <g id="Grupo_2188" data-name="Grupo 2188" transform="translate(104.854 83.71)">
      <path id="Trazado_1248" data-name="Trazado 1248" d="M204.07,290.7l59.949-34.066V188.58l-59.949,34.1Z" transform="translate(-52.739 -50.381)" fill="url(#linear-gradient)"/>
      <path id="Trazado_1249" data-name="Trazado 1249" d="M123.49,188.58v68.053L183.417,290.7V222.676Z" transform="translate(-31.905 -50.381)" fill="url(#linear-gradient-2)"/>
      <path id="Trazado_1250" data-name="Trazado 1250" d="M183.417,141.95,123.49,175.995v.1l59.927,34.1,59.949-34.1v-.1Z" transform="translate(-31.99 -37.938)" fill="url(#linear-gradient-3)"/>
      <path id="Trazado_1251" data-name="Trazado 1251" d="M325.82,152.3V324.322l60.656-34.469v-172Z" transform="translate(-84.183 -31.383)" fill="url(#linear-gradient-4)"/>
      <path id="Trazado_1247" data-name="Trazado 1247" d="M305.193,139.793v-.161L245.34,105.646,306.078,71.14l59.771,33.935v.271Z" transform="translate(-63.559 -18.998)" fill="url(#linear-gradient-5)"/>
      <path id="Trazado_1252" data-name="Trazado 1252" d="M0,117.85v68.3l61.243,34.814V152.407Z" transform="translate(0 -31.49)" fill="url(#linear-gradient-6)"/>
      <path id="Trazado_1246" data-name="Trazado 1246" d="M0,86.3v-.271L151.454,0,212.5,34.66,61.243,120.588v.271Z" transform="translate(0)" fill="url(#linear-gradient-7)"/>
      <path id="Trazado_1253" data-name="Trazado 1253" d="M203.65,432.493l60.18-34.2V329.07h0v.257L203.88,363.393Z" transform="translate(-52.615 -87.929)" fill="url(#linear-gradient-8)"/>
      <path id="Trazado_1254" data-name="Trazado 1254" d="M151.454,413.5,0,327.4V258.12l91.765,52.169v.044l59.92,34.066Z" transform="translate(0 -68.925)" fill="url(#linear-gradient-9)"/>
    </g>
  </g>
  <text id="Hologram" transform="translate(576 402)" fill="#7678ed" font-size="400" font-family="EuclidCircularA-SemiBold, Euclid Circular A" font-weight="600"><tspan x="0" y="0">Hologram</tspan></text>
</svg>
